<svg xmlns="http://www.w3.org/2000/svg" width="16.179" height="18.49" viewBox="0 0 16.179 18.49">
  <path id="calendar-alt" d="M5.345,10.4H3.9a.435.435,0,0,1-.433-.433V8.523A.435.435,0,0,1,3.9,8.089H5.345a.435.435,0,0,1,.433.433V9.967A.435.435,0,0,1,5.345,10.4Zm3.9-.433V8.523a.435.435,0,0,0-.433-.433H7.367a.435.435,0,0,0-.433.433V9.967a.435.435,0,0,0,.433.433H8.812A.435.435,0,0,0,9.245,9.967Zm3.467,0V8.523a.435.435,0,0,0-.433-.433H10.834a.435.435,0,0,0-.433.433V9.967a.435.435,0,0,0,.433.433h1.445A.435.435,0,0,0,12.712,9.967ZM9.245,13.434V11.99a.435.435,0,0,0-.433-.433H7.367a.435.435,0,0,0-.433.433v1.445a.435.435,0,0,0,.433.433H8.812A.435.435,0,0,0,9.245,13.434Zm-3.467,0V11.99a.435.435,0,0,0-.433-.433H3.9a.435.435,0,0,0-.433.433v1.445a.435.435,0,0,0,.433.433H5.345A.435.435,0,0,0,5.778,13.434Zm6.934,0V11.99a.435.435,0,0,0-.433-.433H10.834a.435.435,0,0,0-.433.433v1.445a.435.435,0,0,0,.433.433h1.445A.435.435,0,0,0,12.712,13.434Zm3.467-9.389V16.757a1.734,1.734,0,0,1-1.733,1.733H1.733A1.734,1.734,0,0,1,0,16.757V4.045A1.734,1.734,0,0,1,1.733,2.311H3.467V.433A.435.435,0,0,1,3.9,0H5.345a.435.435,0,0,1,.433.433V2.311H10.4V.433A.435.435,0,0,1,10.834,0h1.445a.435.435,0,0,1,.433.433V2.311h1.733A1.734,1.734,0,0,1,16.179,4.045Zm-1.733,12.5V5.778H1.733V16.54a.217.217,0,0,0,.217.217H14.229A.217.217,0,0,0,14.445,16.54Z" fill="#a7a7a7"/>
</svg>
