<svg xmlns="http://www.w3.org/2000/svg" width="252.009" height="49.911" viewBox="0 0 252.009 49.911">
  <g id="Group_3932" data-name="Group 3932" transform="translate(-1221.508 -1245.895)">
    <path id="Path_10303" data-name="Path 10303" d="M1228.786,1310.476h-2.329l-4.78-14.126h2.36l3.63,11.4,3.63-11.4h2.269Z" transform="translate(-0.063 -18.815)" fill="#575957"/>
    <path id="Path_10304" data-name="Path 10304" d="M1345.589,1264.025l-2.34,1.3v-18.106h2.34Z" transform="translate(-45.397 -0.492)" fill="#575957"/>
    <path id="Path_10305" data-name="Path 10305" d="M1411.775,1264.025h-13.138v-2.3h4.175l-3.779-9.647h2.483l3.744,9.647h2.771v-14.506h2.3v14.506h1.439Z" transform="translate(-66.052 -0.492)" fill="#575957"/>
    <path id="Path_10306" data-name="Path 10306" d="M1555.545,1275.751a33.248,33.248,0,0,1,2-4.677c.225-.439.489-.914.826-1.487s.6-1.034.876-1.459a33.427,33.427,0,0,1,3.048-4.058,35.059,35.059,0,0,1,5.1-4.758l.225-.172v-12.054a62.756,62.756,0,0,0-9.216,8.583,60.467,60.467,0,0,0-5.5,7.324c-.554.869-1.075,1.752-1.578,2.636-.52.879-1.021,1.772-1.5,2.688a59.488,59.488,0,0,0-3.6,8.425,62.3,62.3,0,0,0-2.831,12.263l10.522-6.063.051-.4a34.783,34.783,0,0,1,1.569-6.793" transform="translate(-120.035 -0.445)" fill="#4d9645"/>
    <path id="Path_10307" data-name="Path 10307" d="M1585.666,1259.952a34.594,34.594,0,0,1,4.3,4.117,33.327,33.327,0,0,1,3.049,4.065c.277.432.555.9.879,1.459s.584,1.026.823,1.48a33.248,33.248,0,0,1,1.994,4.677,35.027,35.027,0,0,1,1.571,6.793l.041.322,10.652,6.139a62.64,62.64,0,0,0-2.83-12.263,59.418,59.418,0,0,0-3.6-8.425c-.475-.916-.979-1.808-1.494-2.688s-1.024-1.767-1.578-2.636a59.907,59.907,0,0,0-5.5-7.324,62.525,62.525,0,0,0-9.215-8.584v12.151l.1.075c.274.211.545.422.812.64" transform="translate(-135.455 -0.444)" fill="#0087b0"/>
    <path id="Path_10308" data-name="Path 10308" d="M1575.816,1308.183a33.512,33.512,0,0,1-5.042.619c-.46.021-.928.031-1.431.031h-.665c-.449,0-.886-.007-1.3-.025a33.946,33.946,0,0,1-5.039-.6,34.475,34.475,0,0,1-5.665-1.638l-11.267,6.539a62.783,62.783,0,0,0,12.063,3.669,60.031,60.031,0,0,0,9.1,1.079c1.03.042,2.059.054,3.078.044,1.019.007,2.042-.011,3.076-.056a59.593,59.593,0,0,0,9.1-1.12,62.92,62.92,0,0,0,12.038-3.71l-11.732-6.749a34.921,34.921,0,0,1-6.313,1.914" transform="translate(-120.781 -22.514)" fill="#965926"/>
    <path id="Path_10309" data-name="Path 10309" d="M1585.936,1288.373h.635l-.243-.586c-.31-.747-.638-1.453-.976-2.1-.2-.386-.428-.789-.706-1.27-.294-.51-.516-.879-.742-1.231-.248-.391-.538-.817-.886-1.3l-.127-.176h-8.831l-.127.176c-.347.478-.638.9-.891,1.3s-.476.771-.722,1.2l-.033.057c-.277.471-.489.852-.665,1.2l-.015.029c-.341.651-.671,1.363-.984,2.114l-.245.587h15.558Z" transform="translate(-130.094 -13.355)" fill="#575957"/>
    <path id="Path_10310" data-name="Path 10310" d="M1595.047,1297.892c-.17-.813-.38-1.632-.621-2.431l-.092-.3h-3.408l-.105.27-1.053,2.719-.231.594.637-.017a33.909,33.909,0,0,0,4.586-.342l.354-.122Z" transform="translate(-137.238 -18.371)" fill="#575957"/>
    <path id="Path_10311" data-name="Path 10311" d="M1572.411,1295.43l-.1-.271h-3.4l-.091.3c-.25.827-.466,1.676-.64,2.524l-.075.366.354.12a40.467,40.467,0,0,0,4.6.255l.631.011-.228-.589Z" transform="translate(-129.246 -18.371)" fill="#575957"/>
    <path id="Path_10312" data-name="Path 10312" d="M1243.168,1306.9h4.87a2.813,2.813,0,0,0,.03-.393,2.381,2.381,0,0,0-.651-1.785,2.507,2.507,0,0,0-1.83-.635q-2.269,0-2.421,2.813m6.413,3.811-.393,1.755a9.452,9.452,0,0,1-3.267.484q-2.934,0-4.083-1.664a5.8,5.8,0,0,1-.817-3.328,6.345,6.345,0,0,1,1-3.721,4.087,4.087,0,0,1,3.57-1.664,4,4,0,0,1,3.539,1.573,4.881,4.881,0,0,1,.787,2.874,9.007,9.007,0,0,1-.091,1.271h-6.655a3.019,3.019,0,0,0,.877,2.541,3.35,3.35,0,0,0,2.118.575,7.584,7.584,0,0,0,3.418-.7" transform="translate(-7.276 -21.135)" fill="#575957"/>
    <path id="Path_10313" data-name="Path 10313" d="M1268.392,1309.145l.242,1.15a3.4,3.4,0,0,1-1.634.333,1.788,1.788,0,0,1-1.21-.393,1.366,1.366,0,0,1-.453-1.089V1303.7a2.114,2.114,0,0,0-.272-1.271,1.239,1.239,0,0,0-1-.332,4.281,4.281,0,0,0-1.663.423,5.492,5.492,0,0,0-1.6,1.028v6.928h-2.027v-14.127h2.027v5.414a6.039,6.039,0,0,1,1.724-1.073,4.79,4.79,0,0,1,1.845-.438,3.129,3.129,0,0,1,2.3.666,3.827,3.827,0,0,1,.7,2.6v5.142q0,.545.484.545a2.012,2.012,0,0,0,.544-.061" transform="translate(-13.896 -18.815)" fill="#575957"/>
    <path id="Path_10314" data-name="Path 10314" d="M1279.772,1308.875l.272,1.149a3.475,3.475,0,0,1-1.664.333,1.682,1.682,0,0,1-1.2-.409,1.4,1.4,0,0,1-.438-1.073v-8.712h2.027v8.228q0,.544.484.545a1.882,1.882,0,0,0,.514-.061m-.726-11.979a1.282,1.282,0,0,1-.363.923,1.2,1.2,0,0,1-.907.378,1.266,1.266,0,0,1-.907-.378,1.166,1.166,0,0,1-.393-.862,1.279,1.279,0,0,1,.393-.938,1.244,1.244,0,0,1,.907-.394,1.208,1.208,0,0,1,.907.378,1.247,1.247,0,0,1,.363.892" transform="translate(-20.497 -18.544)" fill="#575957"/>
    <path id="Path_10315" data-name="Path 10315" d="M1291.883,1310.8l-.363,1.694a8.483,8.483,0,0,1-2.965.454,4.233,4.233,0,0,1-3.146-1.331,6.045,6.045,0,0,1-.091-7.532,4.481,4.481,0,0,1,3.539-1.513,8.42,8.42,0,0,1,3.146.514l-.333,1.694a6.645,6.645,0,0,0-2.541-.484q-2.935,0-2.934,3.509,0,3.419,3.237,3.419a7.8,7.8,0,0,0,1.271-.136,6.709,6.709,0,0,0,1.179-.287" transform="translate(-23.321 -21.135)" fill="#575957"/>
    <path id="Path_10316" data-name="Path 10316" d="M1302.829,1309.145l.242,1.15a3.293,3.293,0,0,1-1.633.333,1.738,1.738,0,0,1-1.21-.409,1.374,1.374,0,0,1-.453-1.073v-12.8h2.027v12.312q0,.545.484.545a2.012,2.012,0,0,0,.544-.061" transform="translate(-29.186 -18.815)" fill="#575957"/>
    <path id="Path_10317" data-name="Path 10317" d="M1309.06,1306.9h4.871a2.812,2.812,0,0,0,.03-.393,2.382,2.382,0,0,0-.65-1.785,2.507,2.507,0,0,0-1.83-.635q-2.269,0-2.421,2.813m6.414,3.811-.394,1.755a9.449,9.449,0,0,1-3.266.484q-2.934,0-4.084-1.664a5.8,5.8,0,0,1-.816-3.328,6.346,6.346,0,0,1,1-3.721,4.088,4.088,0,0,1,3.57-1.664,4,4,0,0,1,3.539,1.573,4.887,4.887,0,0,1,.786,2.874,9.043,9.043,0,0,1-.091,1.271h-6.656a3.02,3.02,0,0,0,.877,2.541,3.352,3.352,0,0,0,2.118.575,7.586,7.586,0,0,0,3.418-.7" transform="translate(-31.847 -21.135)" fill="#575957"/>
    <path id="Path_10318" data-name="Path 10318" d="M1323.652,1312.494l.453-1.755a6.573,6.573,0,0,0,1.316.424,6.2,6.2,0,0,0,1.316.181q2.42,0,2.42-1.452a.965.965,0,0,0-.423-.8,7.344,7.344,0,0,0-1.664-.771,8.057,8.057,0,0,1-2.209-1.119,2.266,2.266,0,0,1-.907-1.846,2.371,2.371,0,0,1,1.028-2.057,5.046,5.046,0,0,1,2.934-.725,7.1,7.1,0,0,1,2.844.514l-.333,1.634a5.773,5.773,0,0,0-2.45-.545q-2.027,0-2.027,1.059a.8.8,0,0,0,.378.665,7.42,7.42,0,0,0,1.5.7,8.927,8.927,0,0,1,2.359,1.18,2.747,2.747,0,0,1-.363,4.447,4.9,4.9,0,0,1-2.723.726,11.442,11.442,0,0,1-3.448-.454" transform="translate(-38.09 -21.135)" fill="#575957"/>
    <path id="Path_10319" data-name="Path 10319" d="M1344.1,1309.787l.333-2.057a8.391,8.391,0,0,0,3.69.877,4.1,4.1,0,0,0,2.057-.453,1.724,1.724,0,0,0,.272-2.814,11.276,11.276,0,0,0-2.329-1.391,12.736,12.736,0,0,1-2.783-1.694,3.068,3.068,0,0,1-1.089-2.329,3.485,3.485,0,0,1,1.452-3.086,5.829,5.829,0,0,1,3.418-.877,7.921,7.921,0,0,1,3.479.786l-.332,1.967a7.922,7.922,0,0,0-3.207-.847q-2.631,0-2.632,1.784a1.375,1.375,0,0,0,.56,1.074,11.979,11.979,0,0,0,2.163,1.255,12.5,12.5,0,0,1,2.874,1.724,3.239,3.239,0,0,1,1.18,2.481,3.931,3.931,0,0,1-1.664,3.418,5.8,5.8,0,0,1-3.418.938,9.8,9.8,0,0,1-4.024-.756" transform="translate(-45.716 -18.671)" fill="#575957"/>
    <path id="Path_10320" data-name="Path 10320" d="M1367.1,1309.106v-1q-1-.091-1.453-.091a3.443,3.443,0,0,0-1.936.423,1.545,1.545,0,0,0-.6,1.361q0,1.483,1.785,1.483a2.165,2.165,0,0,0,1.573-.62,2.086,2.086,0,0,0,.635-1.558m3.024,2.359.242,1.15a3.675,3.675,0,0,1-1.6.333,1.786,1.786,0,0,1-1.21-.393,1.329,1.329,0,0,1-.453-1.059,3.086,3.086,0,0,1-2.9,1.453q-3.207,0-3.206-2.934a3,3,0,0,1,1.542-2.813,5.912,5.912,0,0,1,2.935-.635,13.666,13.666,0,0,1,1.634.12v-.937a1.283,1.283,0,0,0-.53-1.18,3.822,3.822,0,0,0-1.89-.332,8.39,8.39,0,0,0-2.964.545l.333-1.663a8.734,8.734,0,0,1,3.206-.545,4.086,4.086,0,0,1,2.994.877,3.93,3.93,0,0,1,.847,2.844v4.689q0,.545.514.545a1.685,1.685,0,0,0,.514-.061" transform="translate(-52.012 -21.135)" fill="#575957"/>
    <path id="Path_10321" data-name="Path 10321" d="M1380.168,1310.135h-2v-8.44h-1.6l.333-1.6h1.27v-1.422a3.97,3.97,0,0,1,.545-2.39,2.63,2.63,0,0,1,2.238-.847,5.885,5.885,0,0,1,2.088.333l-.363,1.664a5.86,5.86,0,0,0-1.362-.242,1.282,1.282,0,0,0-.922.242,1.472,1.472,0,0,0-.227.968v1.694h2.178v1.6h-2.178Z" transform="translate(-57.822 -18.473)" fill="#575957"/>
    <path id="Path_10322" data-name="Path 10322" d="M1389.812,1306.9h4.87a2.815,2.815,0,0,0,.03-.393,2.383,2.383,0,0,0-.65-1.785,2.508,2.508,0,0,0-1.83-.635q-2.269,0-2.42,2.813m6.413,3.811-.393,1.755a9.451,9.451,0,0,1-3.267.484q-2.935,0-4.084-1.664a5.8,5.8,0,0,1-.816-3.328,6.347,6.347,0,0,1,1-3.721,4.088,4.088,0,0,1,3.57-1.664,4,4,0,0,1,3.539,1.573,4.889,4.889,0,0,1,.786,2.874,8.916,8.916,0,0,1-.091,1.271h-6.655a3.016,3.016,0,0,0,.877,2.541,3.348,3.348,0,0,0,2.117.575,7.584,7.584,0,0,0,3.418-.7" transform="translate(-61.96 -21.135)" fill="#575957"/>
    <path id="Path_10323" data-name="Path 10323" d="M1409.546,1309.153l.3,1.513a6.736,6.736,0,0,1-2.239.393,1.963,1.963,0,0,1-1.6-.59,3.151,3.151,0,0,1-.484-1.982v-6.02h-1.6l.332-1.6h1.271v-2.692l2-.665v3.357h2.087v1.6h-2.087v5.778a1.49,1.49,0,0,0,.2.922,1.1,1.1,0,0,0,.831.228,2.2,2.2,0,0,0,1-.243" transform="translate(-68.022 -19.246)" fill="#575957"/>
    <path id="Path_10324" data-name="Path 10324" d="M1418.11,1312.663l-3.812-9.8h2.148l2.6,7.2,2.179-7.2h2.178l-3.6,10.406a7.73,7.73,0,0,1-1.558,2.964,3.077,3.077,0,0,1-2.254.816,4.8,4.8,0,0,1-2.087-.363l.393-1.694a4.759,4.759,0,0,0,1.664.3,1.5,1.5,0,0,0,1.058-.394,6.024,6.024,0,0,0,1.089-2.238" transform="translate(-71.745 -21.243)" fill="#575957"/>
    <path id="Path_10325" data-name="Path 10325" d="M1447.669,1308l-.363,2.087a10.436,10.436,0,0,1-3.177.453,6.806,6.806,0,0,1-5.082-1.875,6.994,6.994,0,0,1-1.845-5.173,7.992,7.992,0,0,1,1.875-5.6,6.264,6.264,0,0,1,4.841-1.936,10.34,10.34,0,0,1,3.751.665l-.363,2a7.4,7.4,0,0,0-3.237-.756,4.157,4.157,0,0,0-3.691,1.724,6.88,6.88,0,0,0-1,3.993q0,3.237,2.208,4.417a5.582,5.582,0,0,0,2.692.6,10.179,10.179,0,0,0,3.388-.6" transform="translate(-80.433 -18.67)" fill="#575957"/>
    <path id="Path_10326" data-name="Path 10326" d="M1458.792,1306.9h4.87a2.83,2.83,0,0,0,.03-.393,2.382,2.382,0,0,0-.65-1.785,2.509,2.509,0,0,0-1.83-.635q-2.268,0-2.42,2.813m6.413,3.811-.393,1.755a9.452,9.452,0,0,1-3.267.484q-2.934,0-4.083-1.664a5.8,5.8,0,0,1-.817-3.328,6.346,6.346,0,0,1,1-3.721,4.087,4.087,0,0,1,3.57-1.664,4,4,0,0,1,3.54,1.573,4.89,4.89,0,0,1,.786,2.874,8.952,8.952,0,0,1-.091,1.271h-6.655a3.018,3.018,0,0,0,.877,2.541,3.35,3.35,0,0,0,2.118.575,7.586,7.586,0,0,0,3.418-.7" transform="translate(-87.682 -21.135)" fill="#575957"/>
    <path id="Path_10327" data-name="Path 10327" d="M1484.014,1311.466l.242,1.15a3.4,3.4,0,0,1-1.634.333,1.788,1.788,0,0,1-1.21-.393,1.367,1.367,0,0,1-.453-1.089v-5.445a2.106,2.106,0,0,0-.272-1.27,1.238,1.238,0,0,0-1-.332,4.294,4.294,0,0,0-1.664.423,5.5,5.5,0,0,0-1.6,1.028v6.927h-2.027v-10.044h2.027v1.331a6.038,6.038,0,0,1,1.724-1.073,4.788,4.788,0,0,1,1.845-.439,3.133,3.133,0,0,1,2.3.666,3.831,3.831,0,0,1,.7,2.6v5.142q0,.545.484.545a2.01,2.01,0,0,0,.544-.061" transform="translate(-94.301 -21.135)" fill="#575957"/>
    <path id="Path_10328" data-name="Path 10328" d="M1496.566,1309.153l.3,1.513a6.729,6.729,0,0,1-2.238.393,1.963,1.963,0,0,1-1.6-.59,3.152,3.152,0,0,1-.484-1.982v-6.02h-1.6l.333-1.6h1.271v-2.692l2-.665v3.357h2.087v1.6h-2.087v5.778a1.492,1.492,0,0,0,.2.922,1.1,1.1,0,0,0,.832.228,2.2,2.2,0,0,0,1-.243" transform="translate(-100.471 -19.246)" fill="#575957"/>
    <path id="Path_10329" data-name="Path 10329" d="M1504.569,1306.9h4.87a2.8,2.8,0,0,0,.03-.393,2.383,2.383,0,0,0-.65-1.785,2.508,2.508,0,0,0-1.831-.635q-2.268,0-2.419,2.813m6.413,3.811-.393,1.755a9.45,9.45,0,0,1-3.267.484q-2.934,0-4.083-1.664a5.8,5.8,0,0,1-.817-3.328,6.344,6.344,0,0,1,1-3.721,4.085,4.085,0,0,1,3.569-1.664,4,4,0,0,1,3.54,1.573,4.893,4.893,0,0,1,.786,2.874,8.9,8.9,0,0,1-.091,1.271h-6.655a3.017,3.017,0,0,0,.877,2.541,3.351,3.351,0,0,0,2.118.575,7.586,7.586,0,0,0,3.418-.7" transform="translate(-104.753 -21.135)" fill="#575957"/>
    <path id="Path_10330" data-name="Path 10330" d="M1522.2,1312.8h-2.027v-10.043h2.027v1.3a2.532,2.532,0,0,1,.8-1.074,1.748,1.748,0,0,1,1.074-.409,3.818,3.818,0,0,1,1.875.545l-.362,1.664a5.315,5.315,0,0,0-1.664-.3q-1,0-1.724,1.331Z" transform="translate(-111.372 -21.135)" fill="#575957"/>
    <path id="Path_10331" data-name="Path 10331" d="M1232.774,1248.739a1.312,1.312,0,0,1-.954-.414,1.391,1.391,0,0,1,0-1.98,1.311,1.311,0,0,1,.954-.414,1.411,1.411,0,0,1,1.008.414,1.323,1.323,0,0,1,.432.99,1.342,1.342,0,0,1-.432.972,1.383,1.383,0,0,1-1.008.432m-3.527,0a1.477,1.477,0,0,1-1.44-1.44,1.324,1.324,0,0,1,.432-.99,1.413,1.413,0,0,1,1.009-.415,1.414,1.414,0,0,1,1.4,1.4,1.409,1.409,0,0,1-.414,1.007,1.326,1.326,0,0,1-.99.432m7.019,14.793h-10.582a4.113,4.113,0,0,1-3.2-1.188,4.3,4.3,0,0,1-.972-2.988v-3.491l2.34-1.511v5.111a1.9,1.9,0,0,0,.4,1.349,1.675,1.675,0,0,0,1.26.414h10.942q1.656,0,1.655-1.584v-8.063h2.3v7.955a3.894,3.894,0,0,1-1.116,2.988,4.265,4.265,0,0,1-3.024,1.007" fill="#575957"/>
    <path id="Path_10332" data-name="Path 10332" d="M1260.723,1264.025h-.143a3.436,3.436,0,0,1-2.664-1.151,3.558,3.558,0,0,1-.936-2.52v-13.139h2.34v13.031q0,1.476,1.26,1.475h.143Z" transform="translate(-13.227 -0.492)" fill="#575957"/>
    <path id="Path_10333" data-name="Path 10333" d="M1268.406,1273.213a1.424,1.424,0,0,1-1.026-.4,1.332,1.332,0,0,1-.414-1.007,1.348,1.348,0,0,1,.414-.99,1.391,1.391,0,0,1,1.026-.414,1.31,1.31,0,0,1,.954.414,1.351,1.351,0,0,1,.413.99,1.383,1.383,0,0,1-.4.99,1.3,1.3,0,0,1-.971.413m2.556-6.3h-8.243v-2.3h4.5v-9.647h2.3v9.647h1.44Z" transform="translate(-15.367 -3.382)" fill="#575957"/>
    <path id="Path_10334" data-name="Path 10334" d="M1284.215,1264.025h-8.639v-2.3h8.782q1.655,0,1.656-1.583v-4.067a1.48,1.48,0,0,0-1.656-1.692h-6.011v-3.059q0-4.1,4.283-4.1h4v2.34h-4.283a1.48,1.48,0,0,0-1.692,1.656v.864h3.636a3.857,3.857,0,0,1,3.059,1.188,4.161,4.161,0,0,1,.936,2.879v3.924a3.753,3.753,0,0,1-1.224,3.023,4.183,4.183,0,0,1-2.843.936" transform="translate(-20.162 -0.492)" fill="#575957"/>
    <path id="Path_10335" data-name="Path 10335" d="M1301.131,1273.214l-1.62-2.051a4.462,4.462,0,0,0,2.286-1.35,4.4,4.4,0,0,0,.594-2.574v-12.274h2.3v9.647h1.44v2.3h-1.44v1.044a5.323,5.323,0,0,1-3.563,5.255" transform="translate(-29.088 -3.382)" fill="#575957"/>
    <path id="Path_10336" data-name="Path 10336" d="M1318.82,1265.785v-7.019q0-1.763-2.015-1.764t-2.016,1.764v7.019q0,1.763,2.016,1.763t2.015-1.763m3.707,1.044h-1.548a3.3,3.3,0,0,1-1.332,2.214,4.777,4.777,0,0,1-2.843.774,4.6,4.6,0,0,1-2.916-.9,3.36,3.36,0,0,1-1.332-2.088h-2.771v-2.3h2.736V1258.8a3.685,3.685,0,0,1,1.511-3.312,4.83,4.83,0,0,1,2.772-.757,4.395,4.395,0,0,1,3.131,1.081,3.893,3.893,0,0,1,1.152,2.987v5.723h1.44Z" transform="translate(-32.919 -3.296)" fill="#575957"/>
    <path id="Path_10337" data-name="Path 10337" d="M1330.847,1264.025h-.972v-2.3h.9a2.032,2.032,0,0,0,1.422-.4,1.845,1.845,0,0,0,.415-1.367v-12.743h2.3v12.923a3.728,3.728,0,0,1-1.116,2.915,4.174,4.174,0,0,1-2.952.972" transform="translate(-40.41 -0.492)" fill="#575957"/>
    <path id="Path_10338" data-name="Path 10338" d="M1436.83,1266.914H1419.3v-2.3h6.767v-9.647h2.3v9.647h4v-9.647h2.3v9.647h2.3q1.69,0,1.691-1.62v-8.027h2.3v7.919a3.871,3.871,0,0,1-1.152,3.024,4.211,4.211,0,0,1-2.988,1.008" transform="translate(-73.757 -3.382)" fill="#575957"/>
    <path id="Path_10339" data-name="Path 10339" d="M1468.826,1248.761a1.391,1.391,0,0,1-1.026-.414,1.391,1.391,0,0,1,0-1.98,1.394,1.394,0,0,1,1.026-.414,1.313,1.313,0,0,1,.954.414,1.391,1.391,0,0,1,0,1.98,1.31,1.31,0,0,1-.954.414m-2.448,21.093-1.62-2.051a4.463,4.463,0,0,0,2.286-1.35,4.4,4.4,0,0,0,.594-2.574V1251.6h2.3v9.647h1.44v2.3h-1.44v1.044a5.322,5.322,0,0,1-3.563,5.255" transform="translate(-90.709 -0.022)" fill="#575957"/>
    <path id="Path_10340" data-name="Path 10340" d="M1483.673,1264.025h-8.639v-2.3h8.782q1.656,0,1.657-1.583v-4.067a1.481,1.481,0,0,0-1.657-1.692h-6.011v-3.059q0-4.1,4.284-4.1h3.995v2.34H1481.8a1.48,1.48,0,0,0-1.692,1.656v.864h3.636a3.855,3.855,0,0,1,3.059,1.188,4.158,4.158,0,0,1,.936,2.879v3.924a3.756,3.756,0,0,1-1.224,3.023,4.186,4.186,0,0,1-2.843.936" transform="translate(-94.54 -0.492)" fill="#575957"/>
    <path id="Path_10341" data-name="Path 10341" d="M1500.589,1273.214l-1.62-2.051a4.461,4.461,0,0,0,2.286-1.35,4.4,4.4,0,0,0,.594-2.574v-12.274h2.3v9.647h1.44v2.3h-1.44v1.044a5.323,5.323,0,0,1-3.563,5.255" transform="translate(-103.466 -3.382)" fill="#575957"/>
    <path id="Path_10342" data-name="Path 10342" d="M1518.277,1265.785v-7.019q0-1.763-2.016-1.763t-2.016,1.763v7.019q0,1.763,2.016,1.763t2.016-1.763m2.268-6.983v6.983a3.68,3.68,0,0,1-1.476,3.275,4.79,4.79,0,0,1-2.807.756,4.6,4.6,0,0,1-2.916-.9,3.356,3.356,0,0,1-1.332-2.087h-2.771v-2.3h2.736V1258.8a3.685,3.685,0,0,1,1.512-3.312,4.829,4.829,0,0,1,2.771-.757,4.4,4.4,0,0,1,3.131,1.08,3.9,3.9,0,0,1,1.152,2.988" transform="translate(-107.297 -3.296)" fill="#575957"/>
    <path id="Path_10343" data-name="Path 10343" d="M1365.61,1248.739a1.323,1.323,0,0,1-.99-.432,1.409,1.409,0,0,1-.414-1.007,1.4,1.4,0,0,1,2.807,0,1.41,1.41,0,0,1-.413,1.007,1.326,1.326,0,0,1-.99.432m.18,12.49v-7.343h-2.3a1.479,1.479,0,0,0-1.656,1.692v3.923a1.788,1.788,0,0,0,.413,1.332,1.968,1.968,0,0,0,1.386.4Zm-3.708-12.49a1.477,1.477,0,0,1-1.44-1.44,1.323,1.323,0,0,1,.432-.99,1.411,1.411,0,0,1,1.008-.415,1.415,1.415,0,0,1,1.4,1.4,1.412,1.412,0,0,1-.414,1.007,1.326,1.326,0,0,1-.99.432m7.451,14.793h-3.744v-1.512l-1.116,1.512h-.864a4.354,4.354,0,0,1-3.383-1.224,4.1,4.1,0,0,1-.936-2.844v-3.816a3.946,3.946,0,0,1,1.332-3.2,4.24,4.24,0,0,1,2.736-.864h4.571v9.647h1.4Z" transform="translate(-51.454)" fill="#575957"/>
    <path id="Path_10344" data-name="Path 10344" d="M1384.31,1265.785v-7.019q0-1.763-2.016-1.763t-2.016,1.763v7.019q0,1.763,2.016,1.763t2.016-1.763m2.267-6.983v6.983a3.68,3.68,0,0,1-1.475,3.275,4.79,4.79,0,0,1-2.808.756,4.594,4.594,0,0,1-2.916-.9,3.358,3.358,0,0,1-1.332-2.087h-2.771v-2.3h2.736V1258.8a3.685,3.685,0,0,1,1.511-3.312,4.83,4.83,0,0,1,2.772-.757,4.4,4.4,0,0,1,3.131,1.08,3.9,3.9,0,0,1,1.152,2.988" transform="translate(-57.34 -3.296)" fill="#575957"/>
  </g>
</svg>
